<svg width="416" height="416" viewBox="0 0 416 416" fill="none" xmlns="http://www.w3.org/2000/svg">
<path d="M352 0H64C28.704 0 0 28.704 0 64V256C0 291.296 28.704 320 64 320V400C64 406.24 67.648 411.936 73.312 414.528C75.456 415.52 77.728 416 80 416C83.744 416 87.456 414.688 90.4 412.128L197.92 320H352C387.296 320 416 291.296 416 256V64C416 28.704 387.296 0 352 0ZM384 256C384 273.632 369.632 288 352 288H192C188.192 288 184.48 289.344 181.6 291.872L96 365.216V304C96 295.168 88.832 288 80 288H64C46.368 288 32 273.632 32 256V64C32 46.368 46.368 32 64 32H352C369.632 32 384 46.368 384 64V256Z" fill="#EC6D6A"/>
<path d="M304 96H112C103.168 96 96 103.168 96 112C96 120.832 103.168 128 112 128H304C312.832 128 320 120.832 320 112C320 103.168 312.832 96 304 96Z" fill="#EC6D6A"/>
<path d="M240 160H112C103.168 160 96 167.168 96 176C96 184.832 103.168 192 112 192H240C248.832 192 256 184.832 256 176C256 167.168 248.832 160 240 160Z" fill="#EC6D6A"/>
</svg>
