<svg width="100" height="100" viewBox="0 0 100 100" fill="none" xmlns="http://www.w3.org/2000/svg">
<path d="M50 0C22.3857 0 0 22.3857 0 50C0 77.6143 22.3857 100 50 100C77.6143 100 100 77.6143 100 50C100 22.3857 77.6143 0 50 0ZM50 93.75C25.8375 93.75 6.25 74.1625 6.25 50C6.25 25.8375 25.8375 6.25 50 6.25C74.1625 6.25 93.75 25.8375 93.75 50C93.75 74.1625 74.1625 93.75 50 93.75Z" fill="#EC6D6A"/>
<path d="M34.375 40.625C37.8268 40.625 40.625 37.8268 40.625 34.375C40.625 30.9232 37.8268 28.125 34.375 28.125C30.9232 28.125 28.125 30.9232 28.125 34.375C28.125 37.8268 30.9232 40.625 34.375 40.625Z" fill="#EC6D6A"/>
<path d="M65.625 40.625C69.0768 40.625 71.875 37.8268 71.875 34.375C71.875 30.9232 69.0768 28.125 65.625 28.125C62.1732 28.125 59.375 30.9232 59.375 34.375C59.375 37.8268 62.1732 40.625 65.625 40.625Z" fill="#EC6D6A"/>
<path d="M71.875 50C71.875 62.0812 62.0812 71.875 50 71.875C37.9188 71.875 28.125 62.0812 28.125 50H21.875C21.875 65.533 34.467 78.125 50 78.125C65.533 78.125 78.125 65.533 78.125 50H71.875Z" fill="#EC6D6A"/>
</svg>
