<svg width="38" height="25" viewBox="0 0 38 25" fill="none" xmlns="http://www.w3.org/2000/svg">
<path d="M29.3255 18.6618L29.4604 18.482V12.075L18.672 16.3903L7.88367 12.075V18.4818L8.01852 18.6615C8.12978 18.8103 10.8394 22.3026 18.672 22.3026C26.5047 22.3026 29.2141 18.8101 29.3255 18.6618Z" fill="#EC6D6A"/>
<path d="M32.8318 17.2459C33.7628 17.2459 34.5175 16.4912 34.5175 15.5602C34.5175 14.6292 33.7628 13.8745 32.8318 13.8745C31.9008 13.8745 31.1461 14.6292 31.1461 15.5602C31.1461 16.4912 31.9008 17.2459 32.8318 17.2459Z" fill="#EC6D6A"/>
<path d="M29.902 10.4458L18.4319 6.07654L18.912 4.81565L31.7502 9.70683L37.3439 7.46892L18.672 0L0 7.46892L18.672 14.9378L29.902 10.4458Z" fill="#EC6D6A"/>
<path d="M32.1573 11.3055V12.6077C32.6003 12.4991 33.0629 12.4991 33.5059 12.6077V10.3758L31.7501 9.70703L29.9017 10.4464L32.1573 11.3055Z" fill="#EC6D6A"/>
<path d="M34.8546 25L33.7603 18.4338C33.1598 18.648 32.5038 18.648 31.9033 18.4338L30.809 25H34.8546Z" fill="#EC6D6A"/>
</svg>
