<svg width="27" height="27" viewBox="0 0 27 27" fill="none" xmlns="http://www.w3.org/2000/svg">
<path d="M26.5258 10.486L23.1475 7.61134V3.01396C23.1475 2.49626 22.744 2.07501 22.2481 2.07501H20.1224C19.6266 2.07501 19.2231 2.49626 19.2231 3.01396V4.27191L14.709 0.43081C14.3824 0.15305 13.952 0 13.4971 0C13.044 0 12.6157 0.152111 12.291 0.42842L0.474203 10.4859C-0.0627033 10.9427 -0.0304906 11.3405 0.0364693 11.537C0.103266 11.7331 0.318372 12.0621 1.00808 12.0621H2.62616V25.2883C2.62616 26.2322 3.35969 27 4.26132 27H9.37121C10.2652 27 10.9655 26.2481 10.9655 25.2883V19.8645C10.9655 19.3996 11.3747 18.9763 11.824 18.9763H15.2578C15.6861 18.9763 16.0345 19.3747 16.0345 19.8645V25.2883C16.0345 26.2161 16.802 27 17.7105 27H22.7387C23.6403 27 24.3738 26.2321 24.3738 25.2883V12.0621H25.9919C26.6816 12.0621 26.8967 11.7331 26.9635 11.537C27.0305 11.3405 27.0627 10.9427 26.5258 10.486Z" fill="#181818"/>
</svg>
