<svg width="25" height="25" viewBox="0 0 25 25" fill="none" xmlns="http://www.w3.org/2000/svg">
<path d="M24.5609 9.70926L21.4328 7.04754V2.7907C21.4328 2.31135 21.0593 1.9213 20.6001 1.9213H18.6319C18.1727 1.9213 17.7991 2.31135 17.7991 2.7907V3.95547L13.6194 0.398898C13.3171 0.141713 12.9186 0 12.4974 0C12.0778 0 11.6812 0.140843 11.3805 0.396685L0.439077 9.70918C-0.0580586 10.1321 -0.028232 10.5005 0.0337679 10.6824C0.0956165 10.864 0.294789 11.1686 0.933411 11.1686H2.43163V23.4151C2.43163 24.2891 3.11083 25 3.94567 25H8.67705C9.50485 25 10.1532 24.3038 10.1532 23.4151V18.393C10.1532 17.9626 10.5321 17.5706 10.9481 17.5706H14.1276C14.5241 17.5706 14.8468 17.9396 14.8468 18.393V23.4151C14.8468 24.2742 15.5575 25 16.3987 25H21.0543C21.8892 25 22.5684 24.289 22.5684 23.4151V11.1686H24.0666C24.7052 11.1686 24.9043 10.864 24.9662 10.6824C25.0282 10.5005 25.0581 10.1321 24.5609 9.70926Z" fill="#EC6D6A"/>
</svg>
