<svg width="30" height="30" viewBox="0 0 30 30" fill="none" xmlns="http://www.w3.org/2000/svg">
<rect x="30" y="30" width="30" height="30" rx="15" transform="rotate(-180 30 30)" fill="url(#paint0_linear_102_44)"/>
<path d="M10.2444 15.9381L17.0617 22.7553C17.2194 22.9131 17.4298 23 17.6543 23C17.8787 23 18.0892 22.9131 18.2469 22.7553L18.7489 22.2533C19.0756 21.9263 19.0756 21.3947 18.7489 21.0682L13.0242 15.3435L18.7553 9.61247C18.9129 9.45467 19 9.24431 19 9.02C19 8.79544 18.9129 8.58508 18.7553 8.42716L18.2532 7.92536C18.0954 7.76756 17.8851 7.68063 17.6606 7.68062C17.4362 7.68062 17.2257 7.76756 17.068 7.92536L10.2444 14.7488C10.0863 14.9071 9.9995 15.1184 10 15.3431C9.9995 15.5687 10.0863 15.7799 10.2444 15.9381Z" fill="#EC6D6A"/>
<defs>
<linearGradient id="paint0_linear_102_44" x1="45" y1="11" x2="45" y2="80" gradientUnits="userSpaceOnUse">
<stop stop-color="#EC6D6A"/>
<stop offset="1" stop-color="#EC6D6A" stop-opacity="0"/>
</linearGradient>
</defs>
</svg>
