<svg width="22" height="23" viewBox="0 0 22 23" fill="none" xmlns="http://www.w3.org/2000/svg">
<path d="M17.4659 0H4.29541C3.36801 0 2.48503 0.290929 1.74181 0.841252C1.59689 0.948566 1.56639 1.15305 1.67371 1.29797C1.78102 1.44289 1.9855 1.4733 2.13042 1.36607C2.76034 0.899594 3.50899 0.652996 4.29541 0.652996H17.4659C19.4741 0.652996 21.1078 2.28679 21.1078 4.29492V12.9332C21.1078 14.9414 19.474 16.5751 17.4659 16.5751H11.8992C11.7647 16.5751 11.6347 16.6313 11.5427 16.7292L7.07197 21.4829C6.97545 21.5854 6.86354 21.5563 6.81995 21.5391C6.77631 21.5218 6.67485 21.4664 6.67485 21.3255V17.0645C6.67485 16.7947 6.45536 16.5752 6.18556 16.5752H4.29541C2.28723 16.5752 0.653441 14.9414 0.653441 12.9333V4.29492C0.653441 3.55613 0.873319 2.84487 1.28935 2.23812C1.39128 2.08938 1.35341 1.8862 1.20472 1.78422C1.05607 1.68224 0.852758 1.7202 0.750822 1.86885C0.259969 2.58483 0.000488281 3.42374 0.000488281 4.29492V12.9332C0.000488281 15.3014 1.9272 17.2281 4.29545 17.2281H6.0219V21.3255C6.0219 21.6898 6.24069 22.0119 6.57933 22.1461C6.68609 22.1884 6.79696 22.209 6.90653 22.209C7.14462 22.209 7.37673 22.1119 7.54764 21.9303L11.9699 17.2281H17.4659C19.8341 17.2281 21.7609 15.3014 21.7609 12.9332V4.29492C21.7609 1.92672 19.8342 0 17.4659 0Z" fill="white"/>
<path d="M15.5704 5.24588C14.4373 4.11266 12.5933 4.11274 11.46 5.24588L10.8909 5.81498C10.8894 5.8165 10.8847 5.82119 10.876 5.82119C10.8673 5.82119 10.8627 5.81659 10.8612 5.81498L10.3011 5.25499C9.16791 4.12177 7.32396 4.12181 6.19074 5.25499C5.05751 6.38821 5.05751 8.23221 6.19074 9.36543L10.3998 13.5745C10.5271 13.7018 10.6964 13.7719 10.8764 13.7719C11.0564 13.7719 11.2257 13.7018 11.353 13.5745L13.6661 11.261C13.7936 11.1335 13.7936 10.9267 13.666 10.7993C13.5385 10.6718 13.3317 10.6718 13.2043 10.7993L10.8912 13.1128C10.8897 13.1143 10.885 13.1189 10.8764 13.1189C10.8677 13.1189 10.863 13.1143 10.8615 13.1127L6.65244 8.90364C5.7738 8.02495 5.7738 6.59534 6.65244 5.71665C7.53108 4.83796 8.96074 4.83805 9.83939 5.71665L10.3994 6.27665C10.5267 6.40396 10.696 6.4741 10.876 6.4741C11.056 6.4741 11.2252 6.404 11.3526 6.27669L11.9217 5.70758C12.8005 4.82898 14.23 4.82898 15.1087 5.70758C15.9873 6.58623 15.9873 8.01584 15.1087 8.89457L14.1339 9.86955C14.0064 9.99708 14.0064 10.2038 14.134 10.3313C14.2615 10.4587 14.4682 10.4588 14.5957 10.3312L15.5705 9.35628C16.7037 8.22305 16.7037 6.3791 15.5704 5.24588Z" fill="white"/>
</svg>
