<svg width="25" height="25" viewBox="0 0 25 25" fill="none" xmlns="http://www.w3.org/2000/svg">
<path d="M20.1499 23.6788C20.3643 23.6788 20.5758 23.7603 20.7367 23.9157C21.7652 24.9089 23.2655 25.2396 24.5992 24.8257C23.7409 23.0375 23.6219 20.9889 24.2871 19.092C25.1126 16.732 25.3195 14.3665 24.38 11.9941C23.5546 9.91003 21.9618 8.17854 19.9461 7.19116C20.0701 7.8523 20.1326 8.52594 20.1326 9.20669C20.1326 12.0962 19.0215 14.8139 17.0041 16.8592C14.9864 18.9048 12.2817 20.0549 9.38829 20.0979C8.85073 20.1064 8.31558 20.0747 7.7865 20.005C9.37666 22.7923 12.3757 24.6077 15.6712 24.6565C17.1128 24.6788 18.4971 24.3768 19.7862 23.7612C19.9023 23.7057 20.0266 23.6788 20.1499 23.6788V23.6788Z" fill="#EC6D6A"/>
<path d="M9.41196 0.00183689C4.27917 -0.100081 0.012404 4.05226 2.78318e-05 9.18394C-0.00300434 10.4377 0.241735 11.6533 0.727502 12.7971C0.734556 12.8138 0.741116 12.8306 0.747056 12.8477C1.41222 14.7445 1.29334 16.7931 0.434928 18.5813C1.76877 18.9951 3.2689 18.6646 4.29748 17.6713C4.55089 17.4265 4.93003 17.3649 5.24798 17.5168C6.5369 18.1324 7.9213 18.4354 9.36288 18.4123C14.4555 18.3366 18.4447 14.293 18.4446 9.20659C18.4447 4.23116 14.3926 0.10196 9.41196 0.00183689V0.00183689ZM4.30305 10.5816C3.56562 10.5816 2.96778 9.98474 2.96778 9.24854C2.96778 8.51234 3.56562 7.9155 4.30305 7.9155C5.04049 7.9155 5.63832 8.51234 5.63832 9.24854C5.63826 9.98474 5.04049 10.5816 4.30305 10.5816ZM9.22235 10.5816C8.48491 10.5816 7.88708 9.98474 7.88708 9.24854C7.88708 8.51234 8.48491 7.9155 9.22235 7.9155C9.95979 7.9155 10.5576 8.51234 10.5576 9.24854C10.5576 9.98474 9.95979 10.5816 9.22235 10.5816ZM14.1417 10.5816C13.4043 10.5816 12.8064 9.98474 12.8064 9.24854C12.8064 8.51234 13.4043 7.9155 14.1417 7.9155C14.8791 7.9155 15.477 8.51234 15.477 9.24854C15.477 9.98474 14.8791 10.5816 14.1417 10.5816Z" fill="#EC6D6A"/>
</svg>
