<svg width="30" height="30" viewBox="0 0 30 30" fill="none" xmlns="http://www.w3.org/2000/svg">
<rect width="30" height="30" rx="15" fill="url(#paint0_linear_102_44)"/>
<path d="M19.7556 14.0619L12.9383 7.24473C12.7806 7.08693 12.5702 7 12.3457 7C12.1213 7 11.9108 7.08693 11.7531 7.24473L11.2511 7.74666C10.9244 8.07372 10.9244 8.60528 11.2511 8.93184L16.9758 14.6565L11.2447 20.3875C11.0871 20.5453 11 20.7557 11 20.98C11 21.2046 11.0871 21.4149 11.2447 21.5728L11.7468 22.0746C11.9046 22.2324 12.1149 22.3194 12.3394 22.3194C12.5638 22.3194 12.7743 22.2324 12.932 22.0746L19.7556 15.2512C19.9137 15.0929 20.0005 14.8816 20 14.6569C20.0005 14.4313 19.9137 14.2201 19.7556 14.0619Z" fill="#EC6D6A"/>
<defs>
<linearGradient id="paint0_linear_102_44" x1="14.9254" y1="62.2388" x2="15" y2="-12" gradientUnits="userSpaceOnUse">
<stop stop-color="#EC6D6A"/>
<stop offset="1" stop-color="#EC6D6A" stop-opacity="0"/>
</linearGradient>
</defs>
</svg>
