<svg width="26" height="25" viewBox="0 0 26 25" fill="none" xmlns="http://www.w3.org/2000/svg">
<path d="M18.2868 15.7233H17.1576L16.7573 15.3373C18.1581 13.7078 19.0015 11.5923 19.0015 9.29102C19.0015 4.15952 14.842 0 9.71046 0C4.57895 0 0.419434 4.15952 0.419434 9.29102C0.419434 14.4225 4.57895 18.582 9.71046 18.582C12.0118 18.582 14.1273 17.7387 15.7568 16.3379L16.1427 16.7381V17.8674L23.2896 25L25.4194 22.8702L18.2868 15.7233ZM9.71046 15.7233C6.15128 15.7233 3.27821 12.8502 3.27821 9.29102C3.27821 5.73185 6.15128 2.85878 9.71046 2.85878C13.2696 2.85878 16.1427 5.73185 16.1427 9.29102C16.1427 12.8502 13.2696 15.7233 9.71046 15.7233Z" fill="#EC6D6A"/>
</svg>
