<svg width="380" height="328" viewBox="0 0 380 328" fill="none" xmlns="http://www.w3.org/2000/svg">
<path d="M356.996 129.914L50.7226 2.82885C37.8198 -2.52563 23.2429 -0.170164 12.6814 8.97294C2.12001 18.1175 -2.29732 32.2073 1.15469 45.7433L28.4157 152.649H161.889C168.031 152.649 173.011 157.628 173.011 163.771C173.011 169.913 168.032 174.893 161.889 174.893H28.4157L1.15469 281.798C-2.29732 295.335 2.11927 309.424 12.6814 318.568C23.2644 327.73 37.8427 330.056 50.7233 324.712L356.996 197.628C370.941 191.842 379.603 178.868 379.603 163.771C379.603 148.674 370.941 135.7 356.996 129.914Z" fill="#EC6D6A"/>
</svg>
