<svg width="27" height="27" viewBox="0 0 27 27" fill="none" xmlns="http://www.w3.org/2000/svg">
<path d="M23.3047 13.2567C23.3047 18.5953 18.8513 22.9231 13.3577 22.9231C7.86409 22.9231 3.41064 18.5953 3.41064 13.2567C3.41064 7.91812 7.86409 3.59033 13.3577 3.59033C18.8513 3.59033 23.3047 7.91812 23.3047 13.2567ZM9.65456 13.2567C9.65456 15.2442 11.3125 16.8554 13.3577 16.8554C15.4029 16.8554 17.0608 15.2442 17.0608 13.2567C17.0608 11.2692 15.4029 9.65808 13.3577 9.65808C11.3125 9.65808 9.65456 11.2692 9.65456 13.2567Z" fill="#181818"/>
<rect x="10.2314" width="5.68402" height="5.24747" rx="1.71476" fill="#181818"/>
<rect x="10.2314" y="21.476" width="5.68402" height="5.52365" rx="1.71476" fill="#181818"/>
<rect x="21.3159" y="10.7711" width="5.68402" height="4.97129" rx="1.71476" fill="#181818"/>
<rect y="11.0473" width="5.68402" height="4.97129" rx="1.71476" fill="#181818"/>
<rect width="5.60225" height="5.60656" rx="1.71476" transform="matrix(0.707721 0.706493 -0.726446 0.687224 21.4102 1.6571)" fill="#181818"/>
<rect width="5.60225" height="5.60656" rx="1.71476" transform="matrix(0.707721 0.706493 -0.726446 0.687224 5.77881 1.6571)" fill="#181818"/>
<rect width="5.60225" height="5.60656" rx="1.71476" transform="matrix(0.707721 0.706493 -0.726446 0.687224 5.77881 17.1233)" fill="#181818"/>
<rect width="5.60225" height="5.60656" rx="1.71476" transform="matrix(0.707721 0.706493 -0.726446 0.687224 21.4102 17.1233)" fill="#181818"/>
</svg>
