<svg width="25" height="26" viewBox="0 0 25 26" fill="none" xmlns="http://www.w3.org/2000/svg">
<path d="M24.9996 11.9953C24.925 8.72443 23.5829 5.67637 21.221 3.4127C18.8623 1.15246 15.7648 -0.0582563 12.4999 0.0022126C9.23382 -0.0590194 6.1375 1.15246 3.77902 3.4127C1.41692 5.67637 0.0749662 8.72443 0.000190742 11.9951L0 12.0054V12.0157C0.0171678 15.3489 1.44439 18.5181 3.92228 20.7392V23.7614C3.92228 24.3479 4.33183 24.8588 4.89589 24.9763C4.97944 24.9936 5.06356 25.0024 5.1473 25.0024C5.3743 25.0024 5.59748 24.9389 5.79396 24.8162L8.22282 23.2988C9.59263 23.7785 11.0219 24.0215 12.4751 24.0215H12.4934C12.5739 24.0231 12.6535 24.0238 12.7338 24.0238C15.9131 24.0236 18.9188 22.8171 21.221 20.6111C23.5829 18.3474 24.925 15.2993 24.9996 12.0287L25 12.0119L24.9996 11.9953ZM17.8717 16.4629H12.5894C12.1846 16.4629 11.8563 16.1346 11.8563 15.7299C11.8563 15.3249 12.1846 14.9966 12.5894 14.9966H17.8717C18.2767 14.9966 18.605 15.3249 18.605 15.7299C18.605 16.1346 18.2767 16.4629 17.8717 16.4629ZM17.8717 13.2197H7.12809C6.72331 13.2197 6.39502 12.8914 6.39502 12.4865C6.39502 12.0817 6.72331 11.7534 7.12809 11.7534H17.8717C18.2767 11.7534 18.605 12.0817 18.605 12.4865C18.605 12.8914 18.2767 13.2197 17.8717 13.2197ZM17.8717 9.97654H7.12809C6.72331 9.97654 6.39502 9.64825 6.39502 9.24328C6.39502 8.83831 6.72331 8.51021 7.12809 8.51021H17.8717C18.2767 8.51021 18.605 8.83831 18.605 9.24328C18.605 9.64825 18.2767 9.97654 17.8717 9.97654Z" fill="#EC6D6A"/>
</svg>
