<svg width="39" height="32" viewBox="0 0 39 32" fill="none" xmlns="http://www.w3.org/2000/svg">
<path d="M35.2821 2.90063C31.4146 -0.967026 25.1211 -0.96673 21.2532 2.90063L19.3111 4.84298C19.3059 4.84816 19.2899 4.86415 19.2601 4.86415C19.2305 4.86415 19.2147 4.84845 19.2095 4.84298L17.2981 2.93172C13.4304 -0.935937 7.13706 -0.935789 3.2694 2.93172C-0.598263 6.79938 -0.598263 13.0929 3.2694 16.9606L17.6349 31.3261C18.0694 31.7606 18.6471 31.9998 19.2615 31.9998C19.8758 31.9998 20.4537 31.7604 20.888 31.3259L28.7825 23.4301C29.2177 22.9949 29.2177 22.2893 28.7823 21.8543C28.3471 21.4192 27.6414 21.4191 27.2066 21.8545L19.3121 29.7503C19.3069 29.7554 19.2909 29.7711 19.2615 29.7711C19.2317 29.7711 19.2159 29.7555 19.2107 29.75L4.84518 15.3845C1.84639 12.3855 1.84639 7.5063 4.84518 4.50736C7.84397 1.50842 12.7234 1.50872 15.7222 4.50736L17.6334 6.41861C18.0679 6.85312 18.6456 7.09251 19.26 7.09251C19.8745 7.09251 20.452 6.85327 20.8867 6.41876L22.829 4.47642C25.8284 1.47778 30.7074 1.47778 33.7062 4.47642C36.7049 7.47521 36.7049 12.3545 33.7062 15.3535L30.3793 18.6811C29.944 19.1164 29.944 19.822 30.3794 20.2569C30.8147 20.692 31.5203 20.6922 31.9552 20.2568L35.2822 16.9293C39.1497 13.0617 39.1497 6.76829 35.2821 2.90063Z" fill="white"/>
</svg>
