<svg width="80" height="54" viewBox="0 0 80 54" fill="none" xmlns="http://www.w3.org/2000/svg">
<path d="M63.1918 20.3912L63.3893 21.393L64.4079 21.4635C72.3892 22.016 78.6667 28.5808 78.6667 36.6667C78.6667 45.1303 71.797 52 63.3333 52H20C9.70305 52 1.33333 43.6303 1.33333 33.3333C1.33333 23.7208 8.61328 15.7877 17.9743 14.7925L18.6855 14.7169L19.0159 14.0826C22.9624 6.50534 30.8839 1.33333 40 1.33333C51.4837 1.33333 61.0459 9.50365 63.1918 20.3912ZM23.3333 31.3333H32V43.3333V44.6667H33.3333H46.6667H48V43.3333V31.3333H56.6667H59.8856L57.6095 29.0572L40.9428 12.3905L40 11.4477L39.0572 12.3905L22.3905 29.0572L20.1144 31.3333H23.3333Z" stroke="#EC6D6A" stroke-width="2.66667"/>
</svg>
